<svg aria-hidden="true" style="position: absolute; width: 0; height: 0; overflow: hidden;" version="1.1" xmlns="http://www.w3.org/2000/svg" xmlns:xlink="http://www.w3.org/1999/xlink">
<defs>
<symbol id="icon-instagram" viewBox="0 0 24 24">
<title>instagram</title>
<path d="M7 1c-1.657 0-3.158 0.673-4.243 1.757s-1.757 2.586-1.757 4.243v10c0 1.657 0.673 3.158 1.757 4.243s2.586 1.757 4.243 1.757h10c1.657 0 3.158-0.673 4.243-1.757s1.757-2.586 1.757-4.243v-10c0-1.657-0.673-3.158-1.757-4.243s-2.586-1.757-4.243-1.757zM7 3h10c1.105 0 2.103 0.447 2.828 1.172s1.172 1.723 1.172 2.828v10c0 1.105-0.447 2.103-1.172 2.828s-1.723 1.172-2.828 1.172h-10c-1.105 0-2.103-0.447-2.828-1.172s-1.172-1.723-1.172-2.828v-10c0-1.105 0.447-2.103 1.172-2.828s1.723-1.172 2.828-1.172zM16.989 11.223c-0.15-0.972-0.571-1.857-1.194-2.567-0.754-0.861-1.804-1.465-3.009-1.644-0.464-0.074-0.97-0.077-1.477-0.002-1.366 0.202-2.521 0.941-3.282 1.967s-1.133 2.347-0.93 3.712 0.941 2.521 1.967 3.282 2.347 1.133 3.712 0.93 2.521-0.941 3.282-1.967 1.133-2.347 0.93-3.712zM15.011 11.517c0.122 0.82-0.1 1.609-0.558 2.227s-1.15 1.059-1.969 1.18-1.609-0.1-2.227-0.558-1.059-1.15-1.18-1.969 0.1-1.609 0.558-2.227 1.15-1.059 1.969-1.18c0.313-0.046 0.615-0.042 0.87-0.002 0.74 0.11 1.366 0.47 1.818 0.986 0.375 0.428 0.63 0.963 0.72 1.543zM18.5 6.5c0-0.552-0.448-1-1-1s-1 0.448-1 1 0.448 1 1 1 1-0.448 1-1z"></path>
</symbol>
<symbol id="icon-mail" viewBox="0 0 24 24">
<title>mail</title>
<path d="M3 7.921l8.427 5.899c0.34 0.235 0.795 0.246 1.147 0l8.426-5.899v10.079c0 0.272-0.11 0.521-0.295 0.705s-0.433 0.295-0.705 0.295h-16c-0.272 0-0.521-0.11-0.705-0.295s-0.295-0.433-0.295-0.705zM1 6.012v11.988c0 0.828 0.34 1.579 0.88 2.12s1.292 0.88 2.12 0.88h16c0.828 0 1.579-0.34 2.12-0.88s0.88-1.292 0.88-2.12v-11.988c0-0.010 0-0.020 0-0.030-0.005-0.821-0.343-1.565-0.88-2.102-0.541-0.54-1.292-0.88-2.12-0.88h-16c-0.828 0-1.579 0.34-2.12 0.88-0.537 0.537-0.875 1.281-0.88 2.103 0 0.005 0 0.011 0 0.017zM20.894 5.554l-8.894 6.225-8.894-6.225c0.048-0.096 0.112-0.183 0.188-0.259 0.185-0.185 0.434-0.295 0.706-0.295h16c0.272 0 0.521 0.11 0.705 0.295 0.076 0.076 0.14 0.164 0.188 0.259z"></path>
</symbol>
<symbol id="icon-more-vertical" viewBox="0 0 24 24">
<title>more-vertical</title>
<path d="M14 12c0-0.552-0.225-1.053-0.586-1.414s-0.862-0.586-1.414-0.586-1.053 0.225-1.414 0.586-0.586 0.862-0.586 1.414 0.225 1.053 0.586 1.414 0.862 0.586 1.414 0.586 1.053-0.225 1.414-0.586 0.586-0.862 0.586-1.414zM14 5c0-0.552-0.225-1.053-0.586-1.414s-0.862-0.586-1.414-0.586-1.053 0.225-1.414 0.586-0.586 0.862-0.586 1.414 0.225 1.053 0.586 1.414 0.862 0.586 1.414 0.586 1.053-0.225 1.414-0.586 0.586-0.862 0.586-1.414zM14 19c0-0.552-0.225-1.053-0.586-1.414s-0.862-0.586-1.414-0.586-1.053 0.225-1.414 0.586-0.586 0.862-0.586 1.414 0.225 1.053 0.586 1.414 0.862 0.586 1.414 0.586 1.053-0.225 1.414-0.586 0.586-0.862 0.586-1.414z"></path>
</symbol>
<symbol id="icon-phone" viewBox="0 0 24 24">
<title>phone</title>
<path d="M23 16.92c0.016-0.714-0.236-1.404-0.673-1.943-0.46-0.566-1.129-0.967-1.925-1.080-0.8-0.098-1.695-0.314-2.586-0.646-0.433-0.159-0.893-0.218-1.344-0.174-0.663 0.064-1.307 0.349-1.819 0.855l-0.72 0.72c-1.77-1.117-3.36-2.667-4.583-4.589l0.726-0.726c0.322-0.33 0.563-0.726 0.707-1.156 0.212-0.632 0.214-1.336-0.039-2.011-0.289-0.753-0.518-1.644-0.644-2.595-0.104-0.715-0.455-1.347-0.963-1.805-0.539-0.485-1.256-0.778-2.027-0.77h-2.996c-0.088 0-0.182 0.004-0.273 0.012-0.824 0.075-1.542 0.478-2.033 1.066s-0.758 1.367-0.683 2.199c0.3 3.076 1.365 6.243 3.216 9.102 1.502 2.413 3.648 4.623 6.298 6.306 2.568 1.697 5.684 2.862 9.086 3.231 0.092 0.009 0.191 0.013 0.288 0.013 0.828-0.003 1.578-0.343 2.118-0.887s0.873-1.297 0.87-2.121zM21 16.92v3c0.001 0.28-0.109 0.53-0.29 0.712s-0.429 0.295-0.706 0.296l-0.088-0.004c-3.060-0.333-5.873-1.388-8.174-2.909-2.428-1.543-4.359-3.538-5.702-5.694-1.697-2.62-2.655-5.481-2.924-8.238-0.024-0.268 0.064-0.526 0.229-0.724s0.403-0.33 0.678-0.355l3.087-0.004c0.271-0.003 0.507 0.094 0.687 0.256 0.17 0.154 0.288 0.366 0.323 0.608 0.142 1.072 0.408 2.117 0.757 3.025 0.081 0.216 0.080 0.447 0.010 0.658-0.049 0.145-0.131 0.281-0.242 0.395l-1.262 1.261c-0.324 0.324-0.379 0.814-0.162 1.201 1.584 2.785 3.839 4.957 6.381 6.378 0.397 0.222 0.882 0.144 1.195-0.166l1.27-1.27c0.166-0.164 0.377-0.257 0.598-0.279 0.152-0.015 0.31 0.005 0.459 0.060 1.022 0.381 2.070 0.636 3.034 0.754 0.241 0.034 0.462 0.166 0.615 0.355 0.147 0.181 0.231 0.412 0.226 0.682z"></path>
</symbol>
<symbol id="icon-x" viewBox="0 0 24 24">
<title>x</title>
<path d="M5.293 6.707l5.293 5.293-5.293 5.293c-0.391 0.391-0.391 1.024 0 1.414s1.024 0.391 1.414 0l5.293-5.293 5.293 5.293c0.391 0.391 1.024 0.391 1.414 0s0.391-1.024 0-1.414l-5.293-5.293 5.293-5.293c0.391-0.391 0.391-1.024 0-1.414s-1.024-0.391-1.414 0l-5.293 5.293-5.293-5.293c-0.391-0.391-1.024-0.391-1.414 0s-0.391 1.024 0 1.414z"></path>
</symbol>
<symbol id="icon-dehaze" viewBox="0 0 24 24">
<title>dehaze</title>
<path d="M2.016 5.484h19.969v2.016h-19.969v-2.016zM2.016 10.5h19.969v2.016h-19.969v-2.016zM2.016 15.516h19.969v1.969h-19.969v-1.969z"></path>
</symbol>
<symbol id="icon-facebook" viewBox="0 0 16 28">
<title>facebook</title>
<path d="M14.984 0.187v4.125h-2.453c-1.922 0-2.281 0.922-2.281 2.25v2.953h4.578l-0.609 4.625h-3.969v11.859h-4.781v-11.859h-3.984v-4.625h3.984v-3.406c0-3.953 2.422-6.109 5.953-6.109 1.687 0 3.141 0.125 3.563 0.187z"></path>
</symbol>
<symbol id="icon-ellipsis-v" viewBox="0 0 6 28">
<title>ellipsis-v</title>
<path d="M6 19.5v3c0 0.828-0.672 1.5-1.5 1.5h-3c-0.828 0-1.5-0.672-1.5-1.5v-3c0-0.828 0.672-1.5 1.5-1.5h3c0.828 0 1.5 0.672 1.5 1.5zM6 11.5v3c0 0.828-0.672 1.5-1.5 1.5h-3c-0.828 0-1.5-0.672-1.5-1.5v-3c0-0.828 0.672-1.5 1.5-1.5h3c0.828 0 1.5 0.672 1.5 1.5zM6 3.5v3c0 0.828-0.672 1.5-1.5 1.5h-3c-0.828 0-1.5-0.672-1.5-1.5v-3c0-0.828 0.672-1.5 1.5-1.5h3c0.828 0 1.5 0.672 1.5 1.5z"></path>
</symbol>
<symbol id="icon-chevron-thin-left" viewBox="0 0 20 20">
<title>chevron-thin-left</title>
<path d="M13.891 17.418c0.268 0.272 0.268 0.709 0 0.979s-0.701 0.271-0.969 0l-7.83-7.908c-0.268-0.27-0.268-0.707 0-0.979l7.83-7.908c0.268-0.27 0.701-0.27 0.969 0s0.268 0.709 0 0.979l-7.141 7.419 7.141 7.418z"></path>
</symbol>
<symbol id="icon-chevron-thin-right" viewBox="0 0 20 20">
<title>chevron-thin-right</title>
<path d="M13.25 10l-7.141-7.42c-0.268-0.27-0.268-0.707 0-0.979 0.268-0.27 0.701-0.27 0.969 0l7.83 7.908c0.268 0.271 0.268 0.709 0 0.979l-7.83 7.908c-0.268 0.271-0.701 0.27-0.969 0s-0.268-0.707 0-0.979l7.141-7.417z"></path>
</symbol>
<symbol id="icon-google-plus1" viewBox="0 0 32 32">
<title>google-plus1</title>
<path d="M10.181 14.294v3.494h5.775c-0.231 1.5-1.744 4.394-5.775 4.394-3.475 0-6.313-2.881-6.313-6.431s2.838-6.431 6.313-6.431c1.981 0 3.3 0.844 4.056 1.569l2.762-2.662c-1.775-1.656-4.075-2.662-6.819-2.662-5.631 0.006-10.181 4.556-10.181 10.188s4.55 10.181 10.181 10.181c5.875 0 9.775-4.131 9.775-9.95 0-0.669-0.075-1.181-0.163-1.688h-9.613z"></path>
<path d="M32 14h-3v-3h-3v3h-3v3h3v3h3v-3h3z"></path>
</symbol>
</defs>
</svg>
